PathFileType	4	(X/Y/Z)	OpenSim_Sub10_CSStiffKnee_Magnet.trc
DataRate	CameraRate	NumFrames	NumMarkers	Units	OrigDataRate	OrigDataStartFrame	OrigNumFrames
100	100	16	8	m	100	4088	8174
Frame#	Time	torso_imu_offset_imu	pelvis_imu_offset_imu	tibia_r_imu_offset_imu	femur_r_imu_offset_imu	tibia_l_imu_offset_imu	femur_l_imu_offset_imu	toes_r_imu_offset_imu	toes_l_imu_offset_imu
				X1	Y1	Z1	X2	Y2	Z2	X3	Y3	Z3	X4	Y4	Z4	X5	Y5	Z5	X6	Y6	Z6	X7	Y7	Z7	X8		Y8	Z8	

4088	40.87000000	-0.93102246	-0.06847365	0.17136443	-0.59388265	0.09025720	-0.73203317	-0.74325877	-0.44674915	-0.11658304	-0.79004838	-0.20534335	0.10155274	-0.48992017	0.61080276	0.26851519	-0.54921896	0.36359393	0.32420006	-0.65467256	-0.20571941	-0.37668593	-0.76165048	-0.18296826	-0.25739467
4089	40.88000000	-0.93232359	-0.06996557	0.16982639	-0.60037495	0.09001424	-0.73201059	-0.73060150	-0.46326680	-0.10868192	-0.79282796	-0.21420653	0.10318357	-0.47866069	0.61809228	0.26734918	-0.55541049	0.36529854	0.31591993	-0.65754774	-0.20783568	-0.37274388	-0.77089169	-0.18263488	-0.22660576
4090	40.89000000	-0.92851816	-0.07088933	0.16680887	-0.59793051	0.08728934	-0.72949420	-0.72177319	-0.48164300	-0.10334579	-0.78631575	-0.21745964	0.10121665	-0.45998633	0.62809101	0.26584995	-0.55828064	0.36303240	0.30471169	-0.66265770	-0.20179455	-0.37400752	-0.77593728	-0.18493247	-0.19721640
4091	40.90000000	-0.93110221	-0.07173323	0.16818405	-0.60081131	0.07988773	-0.73189076	-0.71967077	-0.48475650	-0.09351946	-0.78143279	-0.22562902	0.09930520	-0.44620529	0.64444745	0.26971930	-0.56902991	0.36575433	0.29268978	-0.65991895	-0.19792756	-0.37327737	-0.77962862	-0.18191591	-0.17090351
4092	40.91000000	-0.93321882	-0.06413510	0.16614008	-0.59727783	0.06862570	-0.73302825	-0.71973885	-0.48714474	-0.09147902	-0.78578181	-0.23801977	0.10029985	-0.43139192	0.65292047	0.27258781	-0.57841081	0.36188037	0.28091587	-0.65980164	-0.19939084	-0.37596325	-0.78920032	-0.17861323	-0.13557502
4093	40.92000000	-0.93417069	-0.06133220	0.16200989	-0.58855538	0.06450870	-0.73787532	-0.72083308	-0.48869120	-0.09316656	-0.77341953	-0.25653636	0.11000815	-0.41598329	0.65741213	0.27960533	-0.58684655	0.35725868	0.27227491	-0.65713727	-0.19557083	-0.37048480	-0.79583080	-0.17779696	-0.10597464
4094	40.93000000	-0.93550291	-0.05738604	0.16141290	-0.59188457	0.05811224	-0.74778727	-0.72282900	-0.49139391	-0.08476679	-0.75810232	-0.28014104	0.10697663	-0.40099574	0.66609539	0.28980492	-0.59795308	0.34629132	0.25869781	-0.66372692	-0.18834423	-0.36822073	-0.79512772	-0.17102932	-0.08624137
4095	40.94000000	-0.93488792	-0.05491318	0.16136380	-0.59587386	0.04372042	-0.74580354	-0.71709453	-0.49345095	-0.09263141	-0.76115510	-0.30235764	0.10022516	-0.38175273	0.67290800	0.29749906	-0.60854173	0.34029088	0.24380592	-0.66910313	-0.18615826	-0.36890887	-0.79981251	-0.16462641	-0.06711158
4096	40.95000000	-0.93769688	-0.05206282	0.16135682	-0.59706696	0.04264400	-0.74543179	-0.71916035	-0.49313830	-0.10339883	-0.75443745	-0.31801164	0.09968015	-0.36910494	0.67346461	0.30737915	-0.61923958	0.33149202	0.23476353	-0.66658082	-0.18655138	-0.36656866	-0.80635902	-0.16112384	-0.05048127
4097	40.96000000	-0.94176784	-0.05258964	0.16020777	-0.59226311	0.04013956	-0.75362965	-0.72110459	-0.50089972	-0.09695125	-0.74314243	-0.33730253	0.09845492	-0.35332561	0.67734422	0.31020362	-0.62190385	0.32300032	0.22794085	-0.66565363	-0.18635237	-0.36252560	-0.80727002	-0.16502515	-0.03725431
4098	40.97000000	-0.94028918	-0.04826326	0.15731161	-0.58938496	0.03461487	-0.75400598	-0.72664026	-0.50202421	-0.10561406	-0.73156496	-0.35046331	0.09339634	-0.34103794	0.68427960	0.30854325	-0.63161911	0.31773625	0.22676645	-0.66755289	-0.17822835	-0.36255838	-0.80767638	-0.16928470	-0.03797391
4099	40.98000000	-0.94204214	-0.04173087	0.15648945	-0.59760284	0.02878086	-0.75414019	-0.72005562	-0.50556449	-0.10853536	-0.73241499	-0.35938675	0.08937441	-0.34044406	0.69226312	0.30067842	-0.63732184	0.31247832	0.22697351	-0.66912191	-0.17250161	-0.36341979	-0.80391770	-0.16373598	-0.03982350
4100	40.99000000	-0.93757354	-0.03628054	0.15581377	-0.59899217	0.02591882	-0.75337595	-0.71576447	-0.50435771	-0.10711093	-0.73037867	-0.36715165	0.08729212	-0.33853956	0.70004636	0.28684902	-0.63753722	0.30591228	0.22762990	-0.67543895	-0.17116170	-0.35732923	-0.80606674	-0.16001486	-0.04509508
4101	41	-0.94115616	-0.03275140	0.15927455	-0.59975044	0.01735145	-0.75405831	-0.72282572	-0.50140077	-0.11508329	-0.72299710	-0.37574621	0.08863033	-0.34211670	0.70552597	0.27310275	-0.63811324	0.30602242	0.22386356	-0.67263383	-0.17042065	-0.35621465	-0.80362886	-0.16438921	-0.06260420
4102	41.01000000	-0.94296924	-0.02778641	0.15791103	-0.60296514	0.00699776	-0.76129617	-0.72191733	-0.50685013	-0.11836338	-0.71852397	-0.38439565	0.08863481	-0.34796517	0.70777769	0.25106381	-0.64182378	0.30127516	0.22406791	-0.67492952	-0.16931885	-0.35780340	-0.79980405	-0.16384957	-0.07479070
4103	41.02000000	-0.93964351	-0.02436531	0.15522389	-0.59671251	0.00444807	-0.75458570	-0.72246938	-0.50499450	-0.12188943	-0.71800887	-0.39704604	0.08762675	-0.35524337	0.70430334	0.23943246	-0.64799341	0.29675517	0.21270709	-0.68105914	-0.16803002	-0.35782009	-0.80081442	-0.16515128	-0.08621788
